<?xml version="1.0" standalone="no"?>
<!DOCTYPE svg PUBLIC "-//W3C//DTD SVG 20010904//EN"
 "http://www.w3.org/TR/2001/REC-SVG-20010904/DTD/svg10.dtd">
<svg version="1.0" xmlns="http://www.w3.org/2000/svg"
 width="32.000000pt" height="32.000000pt" viewBox="0 0 32.000000 32.000000"
 preserveAspectRatio="xMidYMid meet">

<g transform="translate(0.000000,32.000000) scale(0.100000,-0.100000)"
fill="#000000" stroke="none">
<path d="M0 160 l0 -160 160 0 160 0 0 160 0 160 -160 0 -160 0 0 -160z m198
90 c5 0 13 7 16 16 5 13 9 14 21 4 8 -7 15 -17 15 -22 0 -5 9 -21 21 -37 18
-24 19 -36 13 -90 -7 -61 -25 -80 -32 -33 -2 12 -7 20 -12 17 -4 -3 -6 -14 -3
-25 4 -14 0 -20 -10 -20 -9 0 -17 7 -19 17 -2 11 -14 16 -35 17 -25 1 -33 -4
-38 -22 -7 -30 -21 -28 -33 6 -9 26 -9 27 -16 5 -4 -13 -13 -23 -19 -23 -10 0
-15 76 -9 128 3 22 41 52 66 52 16 0 26 7 30 23 6 21 7 21 20 5 7 -10 18 -18
24 -18z"/>
<path d="M235 210 c3 -5 8 -10 11 -10 2 0 4 5 4 10 0 6 -5 10 -11 10 -5 0 -7
-4 -4 -10z"/>
<path d="M195 190 c-3 -5 -1 -10 4 -10 6 0 11 5 11 10 0 6 -2 10 -4 10 -3 0
-8 -4 -11 -10z"/>
</g>
</svg>
